<svg width="116" height="19" viewBox="0 0 116 19" fill="none" xmlns="http://www.w3.org/2000/svg">
<path id="FounderSOS" d="M0.906438 0.839999H10.8254V4.246H4.79344V7.704H10.3704V11.097H4.79344V18H0.906438V0.839999ZM15.4815 18.312C14.3115 18.312 13.2715 18.0737 12.3615 17.597C11.4601 17.1117 10.7495 16.4487 10.2295 15.608C9.71814 14.7587 9.46247 13.788 9.46247 12.696C9.46247 11.604 9.71814 10.6333 10.2295 9.784C10.7495 8.926 11.4601 8.25 12.3615 7.756C13.2715 7.262 14.3115 7.015 15.4815 7.015C16.6515 7.015 17.6828 7.262 18.5755 7.756C19.4681 8.25 20.1658 8.926 20.6685 9.784C21.1711 10.6333 21.4225 11.604 21.4225 12.696C21.4225 13.788 21.1711 14.7587 20.6685 15.608C20.1658 16.4487 19.4681 17.1117 18.5755 17.597C17.6828 18.0737 16.6515 18.312 15.4815 18.312ZM15.4815 15.062C15.9321 15.062 16.3221 14.9623 16.6515 14.763C16.9808 14.5637 17.2365 14.282 17.4185 13.918C17.6005 13.554 17.6915 13.1423 17.6915 12.683C17.6915 12.215 17.6005 11.799 17.4185 11.435C17.2365 11.071 16.9808 10.785 16.6515 10.577C16.3221 10.369 15.9321 10.265 15.4815 10.265C15.0308 10.265 14.6365 10.369 14.2985 10.577C13.9691 10.785 13.7091 11.071 13.5185 11.435C13.3365 11.799 13.2455 12.215 13.2455 12.683C13.2455 13.1423 13.3365 13.554 13.5185 13.918C13.7091 14.282 13.9691 14.5637 14.2985 14.763C14.6365 14.9623 15.0308 15.062 15.4815 15.062ZM24.6231 12.267C24.6231 13.1163 24.7834 13.7967 25.1041 14.308C25.4248 14.8107 25.9621 15.062 26.7161 15.062C27.4874 15.062 28.0291 14.8107 28.3411 14.308C28.6618 13.7967 28.8221 13.1163 28.8221 12.267V7.327H32.7221V12.683C32.7221 13.827 32.4838 14.8237 32.0071 15.673C31.5391 16.5137 30.8588 17.1637 29.9661 17.623C29.0734 18.0823 27.9901 18.312 26.7161 18.312C25.4508 18.312 24.3718 18.0823 23.4791 17.623C22.5864 17.1637 21.9061 16.5137 21.4381 15.673C20.9701 14.8237 20.7361 13.827 20.7361 12.683V7.327H24.6231V12.267ZM39.8683 7.015C40.6136 7.015 41.3416 7.16667 42.0523 7.47C42.7629 7.77333 43.3479 8.25433 43.8073 8.913C44.2666 9.563 44.4963 10.421 44.4963 11.487V18H40.5313V12.137C40.5313 11.3743 40.3493 10.8023 39.9853 10.421C39.6213 10.031 39.1446 9.836 38.5553 9.836C38.1653 9.836 37.7969 9.94 37.4503 10.148C37.1123 10.3473 36.8349 10.6333 36.6183 11.006C36.4103 11.37 36.3063 11.7903 36.3063 12.267V18H32.3543V7.327H36.3063V8.9C36.4103 8.614 36.6269 8.328 36.9563 8.042C37.2943 7.74733 37.7146 7.50467 38.2173 7.314C38.7286 7.11467 39.2789 7.015 39.8683 7.015ZM48.7688 18.312C47.7374 18.312 46.8404 18.0607 46.0778 17.558C45.3151 17.0467 44.7214 16.3663 44.2968 15.517C43.8808 14.659 43.6728 13.71 43.6728 12.67C43.6728 11.63 43.8808 10.6853 44.2968 9.836C44.7214 8.978 45.3151 8.29333 46.0778 7.782C46.8404 7.27067 47.7374 7.015 48.7688 7.015C49.4534 7.015 50.0601 7.12333 50.5888 7.34C51.1174 7.548 51.5464 7.79933 51.8758 8.094C52.2051 8.38 52.4044 8.64433 52.4738 8.887V0.111999H56.4258V18H52.5128V16.271C52.3481 16.5917 52.0794 16.9123 51.7068 17.233C51.3341 17.545 50.8964 17.8007 50.3938 18C49.8911 18.208 49.3494 18.312 48.7688 18.312ZM49.9778 15.205C50.4544 15.205 50.8791 15.0967 51.2518 14.88C51.6331 14.6633 51.9321 14.3643 52.1488 13.983C52.3654 13.593 52.4738 13.1553 52.4738 12.67C52.4738 12.1847 52.3654 11.7513 52.1488 11.37C51.9321 10.98 51.6331 10.6767 51.2518 10.46C50.8791 10.2347 50.4544 10.122 49.9778 10.122C49.5184 10.122 49.1024 10.2347 48.7298 10.46C48.3658 10.6767 48.0754 10.98 47.8588 11.37C47.6508 11.7513 47.5468 12.1847 47.5468 12.67C47.5468 13.1553 47.6508 13.593 47.8588 13.983C48.0754 14.3643 48.3658 14.6633 48.7298 14.88C49.1024 15.0967 49.5184 15.205 49.9778 15.205ZM59.2622 13.502C59.2882 13.8833 59.4096 14.2213 59.6262 14.516C59.8429 14.8107 60.1419 15.0447 60.5232 15.218C60.9132 15.3827 61.3726 15.465 61.9012 15.465C62.4039 15.465 62.8546 15.413 63.2532 15.309C63.6606 15.205 64.0116 15.075 64.3062 14.919C64.6096 14.763 64.8436 14.6027 65.0082 14.438L66.5422 16.882C66.3256 17.116 66.0179 17.3457 65.6192 17.571C65.2292 17.7877 64.7136 17.9653 64.0722 18.104C63.4309 18.2427 62.6206 18.312 61.6412 18.312C60.4626 18.312 59.4139 18.091 58.4952 17.649C57.5766 17.207 56.8529 16.557 56.3242 15.699C55.7956 14.841 55.5312 13.7923 55.5312 12.553C55.5312 11.513 55.7566 10.577 56.2072 9.745C56.6666 8.90433 57.3296 8.24133 58.1962 7.756C59.0629 7.262 60.1072 7.015 61.3292 7.015C62.4906 7.015 63.4959 7.22733 64.3452 7.652C65.2032 8.07667 65.8619 8.70933 66.3212 9.55C66.7892 10.382 67.0232 11.422 67.0232 12.67C67.0232 12.7393 67.0189 12.878 67.0102 13.086C67.0102 13.294 67.0016 13.4327 66.9842 13.502H59.2622ZM63.3052 11.435C63.2966 11.1577 63.2229 10.8847 63.0842 10.616C62.9456 10.3387 62.7376 10.1133 62.4602 9.94C62.1829 9.758 61.8276 9.667 61.3942 9.667C60.9609 9.667 60.5926 9.75367 60.2892 9.927C59.9946 10.0917 59.7692 10.3083 59.6132 10.577C59.4572 10.8457 59.3706 11.1317 59.3532 11.435H63.3052ZM70.0794 18H66.1274V7.327H70.0794V8.978H70.0144C70.0838 8.77867 70.2528 8.52733 70.5214 8.224C70.7901 7.912 71.1671 7.63467 71.6524 7.392C72.1378 7.14067 72.7314 7.015 73.4334 7.015C73.9274 7.015 74.3824 7.093 74.7984 7.249C75.2144 7.39633 75.5178 7.53933 75.7084 7.678L74.1744 10.889C74.0531 10.7417 73.8364 10.59 73.5244 10.434C73.2211 10.2693 72.8398 10.187 72.3804 10.187C71.8518 10.187 71.4141 10.3213 71.0674 10.59C70.7294 10.8587 70.4781 11.1837 70.3134 11.565C70.1574 11.9463 70.0794 12.306 70.0794 12.644V18ZM80.414 0.527999C81.48 0.527999 82.4117 0.644999 83.209 0.879C84.0064 1.113 84.6477 1.36 85.133 1.62C85.6184 1.88 85.913 2.05333 86.017 2.14L84.145 5.273C84.0064 5.169 83.768 5.01733 83.43 4.818C83.1007 4.61867 82.7064 4.441 82.247 4.285C81.7964 4.129 81.324 4.051 80.83 4.051C80.1627 4.051 79.621 4.17233 79.205 4.415C78.7977 4.649 78.594 5 78.594 5.468C78.594 5.78867 78.7024 6.079 78.919 6.339C79.1444 6.59033 79.4824 6.833 79.933 7.067C80.3924 7.29233 80.973 7.53933 81.675 7.808C82.3164 8.042 82.9187 8.31933 83.482 8.64C84.0454 8.96067 84.5394 9.342 84.964 9.784C85.3974 10.2173 85.7397 10.72 85.991 11.292C86.2424 11.864 86.368 12.514 86.368 13.242C86.368 14.1087 86.1904 14.8627 85.835 15.504C85.4797 16.1367 84.9944 16.661 84.379 17.077C83.7724 17.493 83.079 17.8007 82.299 18C81.5277 18.208 80.726 18.312 79.894 18.312C78.7154 18.312 77.658 18.1777 76.722 17.909C75.7947 17.6403 75.045 17.35 74.473 17.038C73.901 16.726 73.5587 16.518 73.446 16.414L75.383 13.151C75.487 13.229 75.6864 13.3547 75.981 13.528C76.2844 13.7013 76.6527 13.8833 77.086 14.074C77.5194 14.256 77.9787 14.412 78.464 14.542C78.958 14.672 79.4434 14.737 79.92 14.737C80.7174 14.737 81.3154 14.5853 81.714 14.282C82.1127 13.97 82.312 13.5627 82.312 13.06C82.312 12.6873 82.1864 12.3537 81.935 12.059C81.6837 11.7643 81.3067 11.487 80.804 11.227C80.3014 10.9583 79.673 10.6767 78.919 10.382C78.165 10.0787 77.4587 9.71033 76.8 9.277C76.15 8.84367 75.6214 8.302 75.214 7.652C74.8067 7.002 74.603 6.196 74.603 5.234C74.603 4.272 74.8717 3.44 75.409 2.738C75.955 2.02733 76.67 1.48133 77.554 1.1C78.4467 0.718665 79.4 0.527999 80.414 0.527999ZM89.6069 9.407C89.6069 10.3863 89.8062 11.2747 90.2049 12.072C90.6122 12.8607 91.1712 13.489 91.8819 13.957C92.6012 14.425 93.4332 14.659 94.3779 14.659C95.3225 14.659 96.1502 14.425 96.8609 13.957C97.5802 13.489 98.1392 12.8607 98.5379 12.072C98.9452 11.2747 99.1489 10.3863 99.1489 9.407C99.1489 8.42767 98.9452 7.54367 98.5379 6.755C98.1392 5.96633 97.5802 5.338 96.8609 4.87C96.1502 4.39333 95.3225 4.155 94.3779 4.155C93.4332 4.155 92.6012 4.39333 91.8819 4.87C91.1712 5.338 90.6122 5.96633 90.2049 6.755C89.8062 7.54367 89.6069 8.42767 89.6069 9.407ZM85.5639 9.407C85.5639 8.159 85.7849 6.99767 86.2269 5.923C86.6689 4.83967 87.2885 3.895 88.0859 3.089C88.8832 2.283 89.8192 1.65467 90.8939 1.204C91.9685 0.753332 93.1299 0.527999 94.3779 0.527999C95.6432 0.527999 96.8089 0.753332 97.8749 1.204C98.9495 1.65467 99.8812 2.283 100.67 3.089C101.467 3.895 102.083 4.83967 102.516 5.923C102.958 6.99767 103.179 8.159 103.179 9.407C103.179 10.6637 102.967 11.8337 102.542 12.917C102.117 13.9917 101.511 14.9363 100.722 15.751C99.9332 16.557 99.0015 17.1853 97.9269 17.636C96.8522 18.0867 95.6692 18.312 94.3779 18.312C93.0605 18.312 91.8602 18.0867 90.7769 17.636C89.7022 17.1853 88.7749 16.557 87.9949 15.751C87.2149 14.9363 86.6125 13.9917 86.1879 12.917C85.7719 11.8337 85.5639 10.6637 85.5639 9.407ZM109.06 0.527999C110.126 0.527999 111.057 0.644999 111.855 0.879C112.652 1.113 113.293 1.36 113.779 1.62C114.264 1.88 114.559 2.05333 114.663 2.14L112.791 5.273C112.652 5.169 112.414 5.01733 112.076 4.818C111.746 4.61867 111.352 4.441 110.893 4.285C110.442 4.129 109.97 4.051 109.476 4.051C108.808 4.051 108.267 4.17233 107.851 4.415C107.443 4.649 107.24 5 107.24 5.468C107.24 5.78867 107.348 6.079 107.565 6.339C107.79 6.59033 108.128 6.833 108.579 7.067C109.038 7.29233 109.619 7.53933 110.321 7.808C110.962 8.042 111.564 8.31933 112.128 8.64C112.691 8.96067 113.185 9.342 113.61 9.784C114.043 10.2173 114.385 10.72 114.637 11.292C114.888 11.864 115.014 12.514 115.014 13.242C115.014 14.1087 114.836 14.8627 114.481 15.504C114.125 16.1367 113.64 16.661 113.025 17.077C112.418 17.493 111.725 17.8007 110.945 18C110.173 18.208 109.372 18.312 108.54 18.312C107.361 18.312 106.304 18.1777 105.368 17.909C104.44 17.6403 103.691 17.35 103.119 17.038C102.547 16.726 102.204 16.518 102.092 16.414L104.029 13.151C104.133 13.229 104.332 13.3547 104.627 13.528C104.93 13.7013 105.298 13.8833 105.732 14.074C106.165 14.256 106.624 14.412 107.11 14.542C107.604 14.672 108.089 14.737 108.566 14.737C109.363 14.737 109.961 14.5853 110.36 14.282C110.758 13.97 110.958 13.5627 110.958 13.06C110.958 12.6873 110.832 12.3537 110.581 12.059C110.329 11.7643 109.952 11.487 109.45 11.227C108.947 10.9583 108.319 10.6767 107.565 10.382C106.811 10.0787 106.104 9.71033 105.446 9.277C104.796 8.84367 104.267 8.302 103.86 7.652C103.452 7.002 103.249 6.196 103.249 5.234C103.249 4.272 103.517 3.44 104.055 2.738C104.601 2.02733 105.316 1.48133 106.2 1.1C107.092 0.718665 108.046 0.527999 109.06 0.527999Z" fill="black"/>
</svg>
